<?xml version="1.0" standalone="no"?>
<!DOCTYPE svg PUBLIC "-//W3C//DTD SVG 20010904//EN"
 "http://www.w3.org/TR/2001/REC-SVG-20010904/DTD/svg10.dtd">
<svg version="1.0" xmlns="http://www.w3.org/2000/svg"
 width="260.000000pt" height="260.000000pt" viewBox="0 0 260.000000 260.000000"
 preserveAspectRatio="xMidYMid meet">
<metadata>
Created by potrace 1.11, written by Peter Selinger 2001-2013
</metadata>
<g transform="translate(0.000000,260.000000) scale(0.100000,-0.100000)"
fill="#000000" stroke="none">
<path d="M0 1300 l0 -1300 1300 0 1300 0 0 1300 0 1300 -1300 0 -1300 0 0
-1300z m1015 400 c-16 -17 -31 -20 -117 -20 -66 0 -108 -5 -126 -14 -30 -16
-95 -82 -161 -163 l-43 -53 26 -11 c20 -10 41 -7 113 14 954 274 926 267 1020
266 79 -1 84 -2 48 -11 -22 -5 -148 -36 -280 -68 -301 -74 -740 -208 -813
-249 -18 -10 2 -24 227 -153 356 -204 634 -315 911 -364 156 -28 443 -26 604
4 65 13 121 20 124 18 7 -8 -9 -12 -128 -40 -151 -35 -244 -46 -393 -46 -432
0 -847 141 -1421 483 l-120 71 -73 -79 c-40 -44 -101 -115 -136 -157 l-62 -77
-84 0 -85 -1 95 89 c133 125 469 506 469 532 0 5 -30 9 -67 9 -65 0 -66 0 -48
20 17 19 31 20 278 20 259 0 260 0 242 -20z"/>
</g>
</svg>
